<svg width="24" height="24" viewBox="0 0 24 24" fill="none" xmlns="http://www.w3.org/2000/svg">
<path d="M22 12C22 6.48442 17.5156 2 12 2C6.48442 2 2 6.48442 2 12C2 17.5156 6.48442 22 12 22C17.5156 22 22 17.5156 22 12ZM3.43179 12C3.43179 7.28463 7.28463 3.43179 12 3.43179C16.7154 3.43179 20.5682 7.28463 20.5682 12C20.5682 16.7154 16.7154 20.5682 12 20.5682C7.28463 20.5682 3.43179 16.7154 3.43179 12Z" fill="#4C4981"/>
<path d="M14.8421 12.5049C14.9688 12.3782 15.0527 12.1891 15.0527 11.9999C15.0527 11.8108 14.9688 11.6208 14.8421 11.495L10.9893 7.64215C10.7154 7.3683 10.2524 7.3683 9.97859 7.64215C9.70474 7.91601 9.70474 8.379 9.97859 8.65285L13.3051 11.9998L9.97859 15.3263C9.83139 15.4735 9.76806 15.6421 9.76806 15.8313C9.76806 16.0204 9.83139 16.2104 9.97859 16.3362C10.2524 16.61 10.7154 16.61 10.9893 16.3362L14.8421 12.5049Z" fill="#4C4981"/>
</svg>
