<svg width="120" height="120" viewBox="0 0 120 120" fill="none" xmlns="http://www.w3.org/2000/svg">
<path fill-rule="evenodd" clip-rule="evenodd" d="M24.75 51.7501C25.7 51.6251 26.65 51.4751 27.625 51.3501C27.725 51.9251 27.825 52.4751 27.925 53.0501C28.05 53.0001 28.125 53.0001 28.15 52.9501C29.7 51.3251 31.7 51.0001 33.8 51.1251C37.2 51.3501 39.575 53.6001 40.2 57.1501C40.75 60.3251 40.1 63.2751 38.025 65.8001C36.625 67.5001 34.725 68.2251 32.575 68.2001C31.625 68.2001 30.65 68.0501 29.725 67.8501C29.225 67.7501 28.775 67.3751 28.25 67.1251C28.25 68.5001 28.25 69.9001 28.25 71.2751C28.25 72.6751 28.25 74.0501 28.25 75.4751C27.3 75.4751 26.275 75.4751 25.25 75.4751C25.625 67.5751 25.875 59.6751 24.75 51.7501ZM28.225 64.6501C28.225 64.8501 28.375 65.1251 28.55 65.2501C29.3 65.8251 30.175 66.0751 31.125 66.1501C33.275 66.3251 35.125 65.8001 36.25 63.8001C37.675 61.3001 37.825 58.7001 36.6 56.0751C35.95 54.6751 34.85 53.7001 33.275 53.4501C32.1 53.2751 30.925 53.3251 29.825 53.8251C29.275 54.0751 28.775 54.4501 28.3 54.8501C28.025 55.0751 27.95 55.3751 27.975 55.7251L28.225 64.6501Z" fill="#C93227"/>
<path fill-rule="evenodd" clip-rule="evenodd" d="M43.625 60.025C43.6 62.6 45.65 65.05 48.275 65.625C50.45 66.075 52.6 65.8 54.725 65.3C54.8 65.275 54.875 65.275 55.025 65.225C54.925 66 54.85 66.725 54.725 67.45C54.7 67.55 54.475 67.675 54.325 67.725C52.575 68.225 50.8 68.3 49 68.225C47.525 68.15 46.1 67.875 44.825 67.1C41.975 65.4 40.8 62.8 40.9 59.55C40.975 57.45 41.6 55.55 42.875 53.85C44.525 51.675 46.75 50.85 49.425 51.05C50.075 51.1 50.75 51.225 51.375 51.425C53.625 52.2 54.8 53.9 55.2 56.15C55.4 57.325 55.35 58.55 55.425 59.825C51.425 59.9 47.525 59.95 43.625 60.025ZM52.6 57.9C52.45 57.075 52.4 56.325 52.175 55.6C51.775 54.225 50.825 53.425 49.4 53.225C49 53.175 48.575 53.15 48.175 53.15C45.675 53.25 43.5 55.675 43.75 58.1" fill="#C93227"/>
<path fill-rule="evenodd" clip-rule="evenodd" d="M23.925 59.2501C23.9 61.6001 23.4 63.7251 21.875 65.5251C18.675 69.3251 12.75 69.3751 9.65 65.6251C8.6 64.3501 8.15 62.8501 8.025 61.2501C7.85 58.7001 8.2 56.2751 9.8 54.1751C12.875 50.1251 18.95 49.8751 22.15 53.6501C23.525 55.3001 23.9 57.2501 23.925 59.2501ZM21.025 59.8251C21.025 57.9501 20.55 56.3251 19.6 54.9501C17.85 52.3751 14 52.3751 12.25 54.9251C10.35 57.7001 10.425 61.9501 12.45 64.6501C14.15 66.9251 17.75 66.9751 19.5 64.7251C20.6 63.2751 21.05 61.6251 21.025 59.8251Z" fill="#C93227"/>
<path fill-rule="evenodd" clip-rule="evenodd" d="M56.5 67.75C56.7 62.425 57.175 57.1 56.025 51.775C57.025 51.625 57.975 51.5 58.95 51.35C59.075 52.05 59.175 52.725 59.3 53.475C59.525 53.3 59.65 53.2 59.8 53.1C62 51.225 64.5 50.725 67.25 51.4C69.375 51.925 70.55 53.35 70.7 55.625C70.775 56.675 70.7 57.7 70.725 58.75C70.75 61.55 70.775 64.35 70.775 67.15C70.775 67.325 70.775 67.525 70.775 67.75C69.725 67.75 68.725 67.75 67.675 67.75C67.725 67.1 67.775 66.475 67.8 65.85C67.9 63.25 68 60.65 68.025 58.075C68.025 57.325 67.925 56.55 67.75 55.825C67.35 54.325 66.2 53.725 64.775 53.575C62.95 53.35 61.3 53.85 59.825 54.975C59.55 55.2 59.425 55.425 59.425 55.775C59.45 59.55 59.475 63.35 59.475 67.125C59.475 67.325 59.475 67.525 59.475 67.775C58.5 67.75 57.525 67.75 56.5 67.75Z" fill="#C93227"/>
<path fill-rule="evenodd" clip-rule="evenodd" d="M73.95 39.775C74.225 39.775 74.475 39.775 74.75 39.775C74.75 53.225 74.75 66.675 74.75 80.175C74.5 80.175 74.25 80.2 73.95 80.2C73.95 66.725 73.95 53.275 73.95 39.775Z" fill="#212121"/>
<path d="M83.5 53.4249C83.5 53.5999 83.275 54.2499 82.8 55.3749C82.325 56.4999 82.1 57.1749 82.1 57.3749H81.5C81.5 57.2749 81.35 56.8749 81.075 56.1749C80.725 55.3249 80.5 54.6499 80.35 54.1499H80.325C80.2 54.6249 79.975 55.2999 79.65 56.1749C79.4 56.8749 79.275 57.2749 79.275 57.3749H78.7C78.7 57.2249 78.475 56.5499 78.025 55.3749C77.575 54.1999 77.35 53.5499 77.35 53.4249H78.1C78.1 53.5749 78.25 54.0999 78.575 54.9999C78.9 55.8999 79.05 56.4249 79.05 56.5749H79.1C79.1 56.3499 79.275 55.7999 79.6 54.9249C79.925 54.0499 80.1 53.5499 80.1 53.3999H80.8C80.8 53.5249 80.975 54.0499 81.325 54.9999C81.675 55.9249 81.85 56.4499 81.85 56.5749H81.9C81.9 56.3999 82.05 55.8999 82.35 55.0249C82.65 54.1749 82.8 53.6249 82.8 53.3999H83.5V53.4249Z" fill="black"/>
<path d="M87.2 54.925C87.2 55.05 87.2 55.2 87.175 55.4L84.325 55.45C84.35 55.85 84.5 56.2 84.8 56.475C85.075 56.75 85.475 56.875 85.925 56.875C86.35 56.875 86.75 56.825 87.1 56.725L87.025 57.3C86.75 57.4 86.35 57.45 85.85 57.45C85.125 57.45 84.575 57.25 84.2 56.85C83.825 56.45 83.625 55.975 83.625 55.425C83.625 54.825 83.8 54.3 84.15 53.875C84.5 53.45 84.95 53.225 85.55 53.225C86.075 53.225 86.5 53.375 86.775 53.7C87.075 54.025 87.2 54.425 87.2 54.925ZM86.5 54.95C86.5 54.175 86.175 53.775 85.525 53.775C84.85 53.775 84.475 54.175 84.35 54.975L86.5 54.95Z" fill="black"/>
<path d="M91.425 55.225C91.425 55.825 91.25 56.3499 90.9 56.7999C90.55 57.2499 90.075 57.475 89.475 57.475C88.975 57.475 88.625 57.375 88.425 57.2H88.4L88.3 57.35H87.7C87.725 56.4 87.75 55.375 87.75 54.25C87.75 53.25 87.7 52.325 87.625 51.5L88.45 51.45C88.425 51.925 88.4 52.675 88.4 53.7H88.425C88.7 53.375 89.125 53.225 89.725 53.225C90.225 53.225 90.65 53.4249 90.95 53.7999C91.25 54.2249 91.425 54.7 91.425 55.225ZM90.675 55.325C90.675 54.9 90.575 54.55 90.35 54.275C90.125 53.975 89.825 53.85 89.45 53.85C88.95 53.85 88.6 53.9999 88.375 54.2999C88.375 55.2749 88.4 56.075 88.45 56.7C88.675 56.9 88.975 56.975 89.325 56.975C89.775 56.975 90.125 56.825 90.35 56.5C90.575 56.175 90.675 55.8 90.675 55.325Z" fill="black"/>
<path d="M80 64.7999L79.95 65.3499C79.725 65.4249 79.525 65.4749 79.325 65.4749C78.825 65.4749 78.475 65.3499 78.3 65.0999C78.125 64.8499 78.025 64.3999 78.025 63.7499C78.025 63.3249 78.025 62.7749 78.025 62.0999C77.875 62.0999 77.65 62.0999 77.35 62.1249L77.375 61.5249C77.65 61.5499 77.875 61.5499 78.075 61.5499C78.075 61.3749 78.1 60.9999 78.125 60.3749L78.775 60.2999C78.725 60.8749 78.7 61.2999 78.7 61.5499C78.975 61.5499 79.375 61.5249 79.9 61.4999L79.875 62.1249C79.375 62.0999 78.975 62.0999 78.675 62.0999C78.675 62.5249 78.675 62.9999 78.675 63.4999C78.675 64.0749 78.725 64.4499 78.85 64.6249C78.975 64.7999 79.2 64.8999 79.525 64.8999C79.625 64.8749 79.775 64.8499 80 64.7999Z" fill="black"/>
<path d="M83.65 62.925C83.65 63.05 83.65 63.2 83.625 63.4L80.775 63.45C80.8 63.85 80.95 64.2 81.25 64.475C81.525 64.75 81.925 64.875 82.375 64.875C82.8 64.875 83.2 64.825 83.55 64.725L83.475 65.3C83.2 65.4 82.8 65.45 82.3 65.45C81.575 65.45 81.025 65.25 80.65 64.85C80.275 64.45 80.075 63.975 80.075 63.425C80.075 62.825 80.25 62.3 80.6 61.875C80.95 61.45 81.4 61.225 82 61.225C82.525 61.225 82.95 61.375 83.225 61.7C83.525 62.025 83.65 62.425 83.65 62.925ZM82.975 62.95C82.975 62.175 82.65 61.775 82 61.775C81.325 61.775 80.95 62.175 80.825 62.975L82.975 62.95Z" fill="black"/>
<path d="M87.3 64.7249L87.25 65.2749C87.025 65.3999 86.725 65.4749 86.35 65.4749C85.625 65.4749 85.075 65.2749 84.7 64.8749C84.325 64.4749 84.125 63.9999 84.125 63.4499C84.125 62.8499 84.325 62.3499 84.725 61.9249C85.125 61.4999 85.65 61.2749 86.3 61.2749C86.625 61.2749 86.9 61.2999 87.1 61.3749L87 62.0249C86.7 61.9249 86.425 61.8749 86.125 61.8749C85.725 61.8749 85.425 61.9999 85.175 62.2749C84.925 62.5499 84.825 62.8999 84.825 63.2999C84.825 63.7499 84.975 64.1249 85.25 64.4249C85.525 64.7249 85.925 64.8749 86.425 64.8749C86.65 64.8999 86.925 64.8249 87.3 64.7249Z" fill="black"/>
<path d="M91.125 65.375H90.375C90.425 64.65 90.475 63.875 90.475 63.025C90.475 62.575 90.4 62.275 90.225 62.125C90.05 61.975 89.825 61.9 89.525 61.9C89.1 61.9 88.725 62.05 88.35 62.325C88.35 63.825 88.35 64.85 88.375 65.4H87.65C87.675 64.675 87.675 63.65 87.675 62.3C87.675 61.125 87.625 60.225 87.55 59.55L88.35 59.5C88.325 60.35 88.325 61.125 88.325 61.85H88.35C88.775 61.475 89.225 61.3 89.725 61.3C90.175 61.3 90.525 61.4 90.775 61.6C91.025 61.8 91.15 62.175 91.15 62.675C91.15 62.725 91.15 62.825 91.15 62.975C91.15 63.125 91.15 63.275 91.15 63.375C91.1 63.8 91.1 64.45 91.125 65.375Z" fill="black"/>
<path d="M95.125 65.375H94.375C94.425 64.65 94.475 63.85 94.475 63C94.475 62.575 94.4 62.275 94.225 62.125C94.05 61.975 93.8 61.9 93.475 61.9C93.075 61.9 92.725 62.05 92.4 62.325C92.4 63.275 92.4 64.3 92.425 65.4H91.675C91.725 64.4499 91.75 63.775 91.75 63.35C91.75 62.7 91.7 62.075 91.575 61.475L92.3 61.375L92.375 61.875H92.4C92.8 61.5 93.25 61.325 93.725 61.325C94.175 61.325 94.55 61.425 94.8 61.625C95.05 61.825 95.175 62.2 95.175 62.7C95.175 62.75 95.175 62.85 95.175 63C95.175 63.15 95.175 63.2499 95.175 63.2999C95.1 63.7749 95.125 64.45 95.125 65.375Z" fill="black"/>
<path d="M99.675 63.275C99.675 63.975 99.475 64.525 99.075 64.925C98.675 65.325 98.2 65.525 97.65 65.525C97.125 65.525 96.7 65.35 96.325 65C95.95 64.65 95.775 64.15 95.775 63.525C95.775 62.8 95.975 62.25 96.375 61.85C96.775 61.45 97.275 61.25 97.825 61.25C98.35 61.25 98.775 61.425 99.15 61.775C99.475 62.125 99.675 62.625 99.675 63.275ZM98.95 63.425C98.95 63 98.85 62.6 98.625 62.275C98.4 61.95 98.1 61.775 97.7 61.775C97.3 61.775 97 61.925 96.775 62.25C96.55 62.575 96.45 62.95 96.45 63.35C96.45 63.775 96.55 64.175 96.775 64.5C97 64.825 97.3 65 97.7 65C98.1 65 98.4 64.85 98.625 64.525C98.85 64.2 98.95 63.85 98.95 63.425Z" fill="black"/>
<path d="M100.825 65.375H100.025C100.075 64.45 100.1 63.425 100.1 62.275C100.1 61.15 100.05 60.25 99.975 59.525L100.825 59.475C100.775 60.225 100.75 61.15 100.75 62.25C100.75 63.4 100.775 64.45 100.825 65.375Z" fill="black"/>
<path d="M105.25 63.275C105.25 63.975 105.05 64.525 104.65 64.925C104.25 65.325 103.775 65.525 103.225 65.525C102.7 65.525 102.275 65.35 101.9 65C101.525 64.65 101.35 64.15 101.35 63.525C101.35 62.8 101.55 62.25 101.95 61.85C102.35 61.45 102.85 61.25 103.4 61.25C103.925 61.25 104.35 61.425 104.725 61.775C105.075 62.125 105.25 62.625 105.25 63.275ZM104.525 63.425C104.525 63 104.425 62.6 104.2 62.275C103.975 61.95 103.675 61.775 103.275 61.775C102.875 61.775 102.575 61.925 102.35 62.25C102.125 62.575 102.025 62.95 102.025 63.35C102.025 63.775 102.125 64.175 102.35 64.5C102.575 64.825 102.875 65 103.275 65C103.675 65 103.975 64.85 104.2 64.525C104.425 64.2 104.525 63.85 104.525 63.425Z" fill="black"/>
<path d="M109.6 60.9L109.525 61.475C109 61.475 108.725 61.55 108.675 61.725V61.775C108.85 62 108.95 62.225 108.95 62.525C108.95 62.95 108.8 63.325 108.525 63.6C108.25 63.875 107.8 64.025 107.2 64.025C106.925 64.025 106.725 64 106.575 63.95C106.45 64.05 106.375 64.175 106.375 64.3C106.375 64.475 106.45 64.6 106.625 64.65C106.825 64.725 107.25 64.775 107.9 64.775C108.95 64.775 109.475 65.125 109.475 65.825C109.475 66.325 109.275 66.725 108.85 67.05C108.45 67.375 107.9 67.55 107.25 67.55C106.575 67.55 106.1 67.425 105.825 67.175C105.55 66.925 105.4 66.65 105.4 66.3C105.4 66 105.475 65.75 105.6 65.55C105.75 65.35 105.925 65.25 106.125 65.2V65.175C105.9 65.075 105.8 64.875 105.8 64.575C105.8 64.3 105.95 64.075 106.225 63.85V63.825C106.075 63.75 105.95 63.625 105.8 63.45C105.65 63.275 105.6 63.075 105.6 62.8C105.6 62.35 105.75 62 106.025 61.725C106.3 61.45 106.725 61.3 107.275 61.3C107.725 61.3 108.075 61.375 108.325 61.55H108.375C108.475 61.075 108.7 60.85 109.075 60.85C109.325 60.85 109.5 60.85 109.6 60.9ZM108.875 66.075C108.875 65.825 108.775 65.625 108.6 65.525C108.4 65.425 108.05 65.375 107.525 65.375C107.175 65.375 106.85 65.35 106.55 65.325C106.2 65.5 106.05 65.725 106.05 66.05C106.05 66.725 106.5 67.075 107.375 67.075C107.825 67.075 108.2 66.975 108.475 66.8C108.725 66.6 108.875 66.35 108.875 66.075ZM108.275 62.675C108.275 62.375 108.175 62.15 107.975 61.975C107.775 61.825 107.55 61.725 107.25 61.725C106.975 61.725 106.725 61.8 106.55 61.95C106.35 62.1 106.275 62.325 106.275 62.625C106.275 62.925 106.375 63.15 106.575 63.325C106.775 63.475 107.025 63.55 107.325 63.55C107.6 63.55 107.825 63.475 108.025 63.325C108.2 63.175 108.275 62.95 108.275 62.675Z" fill="black"/>
<path d="M113.075 61.4249C113.075 61.5999 112.875 62.1749 112.45 63.1249C111.975 64.1999 111.675 64.9749 111.55 65.4249C111.35 66.1499 111.175 66.5999 111.025 66.7999C110.8 67.0749 110.4 67.1999 109.85 67.1999L109.825 66.6249C110.175 66.6249 110.45 66.4999 110.7 66.2749C110.95 66.0499 111.05 65.7499 111.05 65.3999C111.05 65.0999 110.8 64.3499 110.275 63.1999C109.75 62.0499 109.5 61.4499 109.5 61.4249H110.35C110.35 61.4999 110.525 61.9999 110.875 62.9249C111.225 63.8499 111.4 64.4249 111.4 64.6499H111.45C111.45 64.4749 111.6 63.9499 111.9 63.0749C112.2 62.1999 112.35 61.6499 112.35 61.3999H113.075V61.4249Z" fill="black"/>
</svg>
