<svg width="40" height="40" viewBox="0 0 40 40" fill="none" xmlns="http://www.w3.org/2000/svg">
<path d="M36.6666 20C36.6666 10.8074 29.1926 3.33337 20 3.33337C10.8073 3.33337 3.33331 10.8074 3.33331 20C3.33331 29.1927 10.8073 36.6667 20 36.6667C29.1926 36.6667 36.6666 29.1927 36.6666 20ZM5.71963 20C5.71963 12.1411 12.141 5.71969 20 5.71969C27.8589 5.71969 34.2803 12.1411 34.2803 20C34.2803 27.859 27.8589 34.2804 20 34.2804C12.141 34.2804 5.71963 27.859 5.71963 20Z" fill="white"/>
<path d="M24.7369 20.8415C24.9479 20.6304 25.0877 20.3151 25.0877 19.9999C25.0877 19.6847 24.9479 19.3681 24.7369 19.1584L18.3155 12.737C17.859 12.2805 17.0874 12.2805 16.631 12.737C16.1745 13.1934 16.1745 13.965 16.631 14.4215L22.1752 19.9997L16.631 25.5439C16.3856 25.7893 16.2801 26.0702 16.2801 26.3855C16.2801 26.7007 16.3856 27.0173 16.631 27.227C17.0874 27.6834 17.859 27.6834 18.3155 27.227L24.7369 20.8415Z" fill="white"/>
</svg>
